# xmcd CD database file
#
# Track frame offsets:
#	150
#	13976
#	27873
#	42428
#	56010
#	76011
#	90576
#	113899
#	130198
#	146458
#
# Disc length: 2298 seconds
#
# Revision: 0
# Processed by: cddbd v1.5.2PL0 Copyright (c) Steve Scherf et al.
# Submitted via: CDex 1.70beta2
#
DISCID=7c08f80a
DTITLE=Sara ja Susiraja - Matkatavaraa
DYEAR=2009
DGENRE=Kotimainen
TTITLE0=Joutilas
TTITLE1=Matkatavaraa
TTITLE2=Haaveilijan haamu
TTITLE3=Maailman ääriin
TTITLE4=Pyörre
TTITLE5=Vittumainen pää
TTITLE6=Kolea
TTITLE7=Herrasmies
TTITLE8=Glitterikengät
TTITLE9=Kivisade
EXTD=YEAR: 2009
EXTT0=
EXTT1=
EXTT2=
EXTT3=
EXTT4=
EXTT5=
EXTT6=
EXTT7=
EXTT8=
EXTT9=
PLAYORDER=
